<?xml version="1.0" encoding="UTF-8"?>
<!DOCTYPE svg PUBLIC "-//W3C//DTD SVG 1.1//EN" "http://www.w3.org/Graphics/SVG/1.1/DTD/svg11.dtd">
<!-- Creator: CorelDRAW 2019 (64 Bit) -->
<svg xmlns="http://www.w3.org/2000/svg" xml:space="preserve" width="1000px" height="975px" version="1.1" style="shape-rendering:geometricPrecision; text-rendering:geometricPrecision; image-rendering:optimizeQuality; fill-rule:evenodd; clip-rule:evenodd"
viewBox="0 0 104.87 102.29"
 xmlns:xlink="http://www.w3.org/1999/xlink">
 <defs>
  <style type="text/css">
   <![CDATA[
    .fil0 {fill:white}
   ]]>
  </style>
   <mask id="id0">
  <linearGradient id="id1" gradientUnits="userSpaceOnUse" x1="52.88" y1="-23.45" x2="52.88" y2="89.11">
   <stop offset="0" style="stop-opacity:1; stop-color:white"/>
   <stop offset="0.278431" style="stop-opacity:-127.502; stop-color:white"/>
   <stop offset="1" style="stop-opacity:0; stop-color:white"/>
  </linearGradient>
    <rect style="fill:url(#id1)" x="-0.01" y="-0.01" width="104.89" height="102.31"/>
   </mask>
 </defs>
 <g id="Camada_x0020_1">
  <metadata id="CorelCorpID_0Corel-Layer"/>
  <path class="fil0" style="mask:url(#id0)" d="M52.44 0c-28.96,0 -52.44,23.48 -52.44,52.44 0,23.16 15.02,42.82 35.86,49.75 2.62,0.49 3.47,-1.14 3.47,-2.52l0 -9.76c-14.59,3.17 -17.63,-6.19 -17.63,-6.19 -2.38,-6.06 -5.82,-7.67 -5.82,-7.67 -4.76,-3.26 0.36,-3.19 0.36,-3.19 5.27,0.37 8.04,5.41 8.04,5.41 4.67,8.01 12.26,5.7 15.26,4.35 0.46,-3.38 1.82,-5.7 3.33,-7 -11.65,-1.34 -23.89,-5.83 -23.89,-25.92 0,-5.73 2.05,-10.41 5.4,-14.07 -0.55,-1.33 -2.34,-6.66 0.51,-13.88 0,0 4.4,-1.41 14.42,5.37 4.18,-1.16 8.67,-1.74 13.12,-1.76 4.46,0.02 8.95,0.6 13.14,1.76 10.01,-6.78 14.41,-5.37 14.41,-5.37 2.85,7.22 1.05,12.56 0.51,13.88 3.36,3.67 5.4,8.35 5.4,14.07 0,20.14 -12.27,24.57 -23.94,25.87 1.87,1.63 3.59,4.82 3.59,9.71l0 14.39c0,1.39 0.84,3.03 3.5,2.52 20.82,-6.94 35.83,-26.6 35.83,-49.75 0,-28.96 -23.48,-52.44 -52.44,-52.44l0.01 0z"/>
 </g>
</svg>
