<?xml version="1.0" encoding="UTF-8"?>
<!DOCTYPE svg PUBLIC "-//W3C//DTD SVG 1.1//EN" "http://www.w3.org/Graphics/SVG/1.1/DTD/svg11.dtd">
<!-- Creator: CorelDRAW 2019 (64 Bit) -->
<svg xmlns="http://www.w3.org/2000/svg" xml:space="preserve" width="1942px" height="290px" version="1.1" style="shape-rendering:geometricPrecision; text-rendering:geometricPrecision; image-rendering:optimizeQuality; fill-rule:evenodd; clip-rule:evenodd"
viewBox="0 0 147.13 21.97"
 xmlns:xlink="http://www.w3.org/1999/xlink">
 <defs>
  <style type="text/css">
   <![CDATA[
    .fil0 {fill:#737380}
    .fil1 {fill:#A8A8B3}
    .fil2 {fill:white}
   ]]>
  </style>
 </defs>
 <g id="Camada_x0020_1">
  <metadata id="CorelCorpID_0Corel-Layer"/>
  <path class="fil0" d="M33.62 12.06c0,-1.35 0.32,-2.43 0.95,-3.23 0.64,-0.81 1.48,-1.22 2.53,-1.22 1,0 1.78,0.35 2.35,1.04l0.08 -0.88 1.77 0 0 8.44c0,1.15 -0.36,2.05 -1.07,2.71 -0.71,0.66 -1.67,0.99 -2.88,0.99 -0.64,0 -1.26,-0.14 -1.87,-0.4 -0.61,-0.27 -1.07,-0.61 -1.39,-1.04l0.93 -1.18c0.6,0.72 1.34,1.07 2.22,1.07 0.65,0 1.16,-0.17 1.54,-0.53 0.37,-0.35 0.56,-0.86 0.56,-1.54l0 -0.59c-0.56,0.63 -1.31,0.94 -2.25,0.94 -1.02,0 -1.86,-0.4 -2.5,-1.21 -0.65,-0.81 -0.97,-1.94 -0.97,-3.37zm1.95 0.17c0,0.88 0.17,1.56 0.53,2.07 0.36,0.5 0.85,0.75 1.49,0.75 0.79,0 1.37,-0.34 1.75,-1.02l0 -3.83c-0.37,-0.66 -0.95,-0.99 -1.74,-0.99 -0.64,0 -1.14,0.26 -1.5,0.77 -0.36,0.51 -0.53,1.26 -0.53,2.25zm9.82 4.25l-1.95 0 0 -8.71 1.95 0 0 8.71zm-2.07 -10.97c0,-0.3 0.09,-0.55 0.28,-0.75 0.19,-0.19 0.46,-0.29 0.82,-0.29 0.35,0 0.63,0.1 0.82,0.29 0.19,0.2 0.29,0.45 0.29,0.75 0,0.3 -0.1,0.54 -0.29,0.74 -0.19,0.2 -0.47,0.29 -0.82,0.29 -0.36,0 -0.63,-0.09 -0.82,-0.29 -0.19,-0.2 -0.28,-0.44 -0.28,-0.74zm6.66 0.15l0 2.11 1.54 0 0 1.45 -1.54 0 0 4.86c0,0.33 0.06,0.58 0.19,0.73 0.14,0.14 0.37,0.21 0.71,0.21 0.23,0 0.45,-0.02 0.68,-0.08l0 1.52c-0.44,0.12 -0.87,0.18 -1.28,0.18 -1.51,0 -2.26,-0.83 -2.26,-2.49l0 -4.93 -1.43 0 0 -1.45 1.43 0 0 -2.11 1.96 0zm4.96 3.06c0.64,-0.74 1.45,-1.11 2.43,-1.11 1.85,0 2.79,1.06 2.82,3.18l0 5.69 -1.95 0 0 -5.62c0,-0.6 -0.14,-1.02 -0.4,-1.27 -0.26,-0.25 -0.64,-0.38 -1.14,-0.38 -0.79,0 -1.37,0.35 -1.76,1.05l0 6.22 -1.95 0 0 -12.36 1.95 0 0 4.6zm12.51 6.91c-0.58,0.67 -1.39,1.01 -2.45,1.01 -0.94,0 -1.66,-0.28 -2.15,-0.83 -0.48,-0.55 -0.72,-1.35 -0.72,-2.4l0 -5.64 1.96 0 0 5.62c0,1.11 0.45,1.66 1.37,1.66 0.95,0 1.59,-0.34 1.92,-1.02l0 -6.26 1.96 0 0 8.71 -1.84 0 -0.05 -0.85zm11.52 -3.41c0,1.35 -0.3,2.42 -0.91,3.22 -0.6,0.8 -1.43,1.2 -2.48,1.2 -1.02,0 -1.82,-0.37 -2.39,-1.1l-0.09 0.94 -1.77 0 0 -12.36 1.95 0 0 4.49c0.57,-0.67 1.32,-1 2.28,-1 1.06,0 1.9,0.4 2.5,1.19 0.61,0.78 0.91,1.89 0.91,3.3l0 0.12zm-1.95 -0.17c0,-0.95 -0.17,-1.66 -0.5,-2.13 -0.34,-0.47 -0.82,-0.71 -1.45,-0.71 -0.85,0 -1.44,0.37 -1.79,1.11l0 3.59c0.35,0.76 0.95,1.14 1.81,1.14 0.61,0 1.08,-0.23 1.41,-0.69 0.33,-0.45 0.51,-1.14 0.52,-2.06l0 -0.25z"/>
  <path class="fil1" d="M87.02 18.02l-7.38 0 0 -1.54 7.38 0 0 1.54zm4.87 -1.38c-1.24,0 -2.25,-0.39 -3.02,-1.17 -0.77,-0.78 -1.15,-1.82 -1.15,-3.12l0 -0.24c0,-0.87 0.16,-1.64 0.5,-2.33 0.34,-0.68 0.81,-1.22 1.41,-1.6 0.61,-0.38 1.29,-0.57 2.03,-0.57 1.19,0 2.1,0.38 2.75,1.14 0.65,0.75 0.97,1.82 0.97,3.21l0 0.79 -5.69 0c0.06,0.71 0.3,1.28 0.72,1.7 0.42,0.42 0.95,0.63 1.59,0.63 0.9,0 1.63,-0.36 2.19,-1.09l1.05 1.01c-0.35,0.52 -0.81,0.92 -1.4,1.21 -0.58,0.29 -1.23,0.43 -1.95,0.43zm-0.24 -7.46c-0.53,0 -0.97,0.19 -1.3,0.56 -0.33,0.38 -0.54,0.9 -0.63,1.57l3.73 0 0 -0.14c-0.04,-0.66 -0.22,-1.15 -0.53,-1.48 -0.3,-0.34 -0.72,-0.51 -1.27,-0.51zm8.38 1.46l1.66 -2.87 2.17 0 -2.66 4.29 2.75 4.42 -2.16 0 -1.74 -2.98 -1.73 2.98 -2.17 0 2.75 -4.42 -2.65 -4.29 2.16 0 1.62 2.87zm12.79 1.58c0,1.34 -0.31,2.42 -0.92,3.22 -0.61,0.8 -1.43,1.2 -2.46,1.2 -0.96,0 -1.72,-0.31 -2.3,-0.94l0 4.13 -1.95 0 0 -12.06 1.8 0 0.08 0.89c0.58,-0.7 1.36,-1.05 2.34,-1.05 1.07,0 1.9,0.4 2.5,1.19 0.6,0.79 0.91,1.89 0.91,3.29l0 0.13zm-1.95 -0.17c0,-0.87 -0.17,-1.56 -0.52,-2.07 -0.35,-0.51 -0.84,-0.77 -1.48,-0.77 -0.8,0 -1.38,0.33 -1.73,0.99l0 3.87c0.36,0.67 0.94,1.01 1.74,1.01 0.62,0 1.11,-0.25 1.46,-0.75 0.35,-0.5 0.53,-1.26 0.53,-2.28zm5.69 4.43l-1.96 0 0 -12.36 1.96 0 0 12.36zm1.77 -4.43c0,-0.86 0.17,-1.62 0.51,-2.31 0.33,-0.68 0.81,-1.21 1.42,-1.57 0.61,-0.37 1.31,-0.56 2.11,-0.56 1.17,0 2.13,0.38 2.86,1.14 0.73,0.75 1.13,1.76 1.19,3.01l0 0.46c0,0.85 -0.16,1.62 -0.49,2.3 -0.33,0.67 -0.8,1.2 -1.42,1.57 -0.61,0.37 -1.32,0.55 -2.13,0.55 -1.22,0 -2.21,-0.41 -2.95,-1.22 -0.73,-0.82 -1.1,-1.91 -1.1,-3.28l0 -0.09zm1.95 0.17c0,0.89 0.19,1.59 0.56,2.1 0.37,0.51 0.89,0.76 1.54,0.76 0.66,0 1.18,-0.26 1.54,-0.77 0.37,-0.52 0.56,-1.27 0.56,-2.26 0,-0.88 -0.19,-1.58 -0.57,-2.1 -0.38,-0.51 -0.89,-0.77 -1.54,-0.77 -0.64,0 -1.15,0.26 -1.52,0.77 -0.38,0.5 -0.57,1.26 -0.57,2.27zm12.36 -2.66c-0.26,-0.04 -0.53,-0.06 -0.8,-0.06 -0.9,0 -1.5,0.34 -1.81,1.03l0 5.95 -1.96 0 0 -8.71 1.87 0 0.05 0.98c0.47,-0.76 1.13,-1.14 1.96,-1.14 0.28,0 0.51,0.04 0.69,0.11l0 1.84zm4.91 7.08c-1.24,0 -2.25,-0.39 -3.02,-1.17 -0.77,-0.78 -1.15,-1.82 -1.15,-3.12l0 -0.24c0,-0.87 0.16,-1.64 0.5,-2.33 0.33,-0.68 0.81,-1.22 1.41,-1.6 0.61,-0.38 1.28,-0.57 2.03,-0.57 1.19,0 2.1,0.38 2.74,1.14 0.65,0.75 0.98,1.82 0.98,3.21l0 0.79 -5.69 0c0.06,0.71 0.3,1.28 0.71,1.7 0.43,0.42 0.96,0.63 1.6,0.63 0.89,0 1.62,-0.36 2.19,-1.09l1.05 1.01c-0.35,0.52 -0.81,0.92 -1.4,1.21 -0.58,0.29 -1.23,0.43 -1.95,0.43zm-0.24 -7.46c-0.53,0 -0.97,0.19 -1.3,0.56 -0.33,0.38 -0.54,0.9 -0.63,1.57l3.73 0 0 -0.14c-0.05,-0.66 -0.22,-1.15 -0.53,-1.48 -0.3,-0.34 -0.73,-0.51 -1.27,-0.51zm9.81 0.38c-0.26,-0.04 -0.52,-0.06 -0.8,-0.06 -0.89,0 -1.5,0.34 -1.81,1.03l0 5.95 -1.95 0 0 -8.71 1.87 0 0.04 0.98c0.48,-0.76 1.13,-1.14 1.97,-1.14 0.28,0 0.51,0.04 0.69,0.11l-0.01 1.84z"/>
  <path class="fil2" d="M0 10.99c0,-6.07 4.92,-10.99 10.99,-10.99 6.07,0 10.98,4.92 10.98,10.99 0,6.06 -4.91,10.98 -10.98,10.98 -6.07,0 -10.99,-4.92 -10.99,-10.98zm4.39 6.59l9 -4.19 4.19 -9 -9 4.19 -4.19 9zm7.81 -6.59c0,0.66 -0.54,1.21 -1.21,1.21 -0.67,0 -1.21,-0.55 -1.21,-1.21 0,-0.67 0.54,-1.21 1.21,-1.21 0.67,0 1.21,0.54 1.21,1.21z"/>
 </g>
</svg>
